ply
format ascii 1.0
comment File exported by Rhinoceros Version 6.0
element vertex 404
property float x
property float y
property float z
element face 260
property list uchar uint vertex_index
end_header
-23 -11.91955 -15
-23 -11.91955 -15
-23 -11.91955 -15
-19 -11.91955 -15
-19 -11.91955 -15
-19 -11.91955 -15
-19 -7.91955 -15
-19 -7.91955 -15
-19 -7.91955 -15
-23 -7.91955 -15
-23 -7.91955 -15
-23 -7.91955 -15
-20 -8.91955 -15
-20 -8.91955 -15
-20 -8.91955 -15
-20 -10.91955 -15
-20 -10.91955 -15
-20 -10.91955 -15
-22 -10.91955 -15
-22 -10.91955 -15
-22 -10.91955 -15
-22 -8.91955 -15
-22 -8.91955 -15
-22 -8.91955 -15
-19 -11.91955 -16
-19 -11.91955 -16
-19 -11.91955 -16
-19 -7.91955 -16
-19 -7.91955 -16
-19 -7.91955 -16
-23 -7.91955 -16
-23 -7.91955 -16
-23 -7.91955 -16
-23 -11.91955 -16
-23 -11.91955 -16
-23 -11.91955 -16
-22 -8.91955 0
-22 -8.91955 0
-22 -8.91955 0
-20 -8.91955 0
-20 -8.91955 0
-20 -8.91955 0
-20 -10.91955 0
-20 -10.91955 0
-20 -10.91955 0
-22 -10.91955 0
-22 -10.91955 0
-22 -10.91955 0
-20 -17.8391 0
-20 -17.8391 0
-20 -17.8391 0
20 -17.8391 0
20 -17.8391 0
20 -17.8391 0
20 -10.91955 0
20 -10.91955 0
20 -10.91955 0
22 -10.91955 0
22 -10.91955 0
22 -10.91955 0
22 -19.8391 0
22 -19.8391 0
22 -19.8391 0
-22 -19.8391 0
-22 -19.8391 0
-22 -19.8391 0
-22 0 0
-22 0 0
-22 0 0
-20 0 0
-20 0 0
-20 0 0
-22 -14.8391 1
-22 -14.8391 1
-22 -14.8391 1
-22 -14.8391 1
-22 -19.8391 1
-22 -19.8391 1
-22 -19.8391 1
22 -19.8391 1
22 -19.8391 1
22 -19.8391 1
22 -14.8391 1
22 -14.8391 1
22 -14.8391 1
22 -14.8391 1
23 -14.8391 1
23 -14.8391 1
23 -14.8391 1
23 -20.8391 1
23 -20.8391 1
23 -20.8391 1
-23 -20.8391 1
-23 -20.8391 1
-23 -20.8391 1
-23 -14.8391 1
-23 -14.8391 1
-23 -14.8391 1
-23 -20.8391 2
-23 -20.8391 2
-23 -20.8391 2
-23 -14.8391 2
-23 -14.8391 2
-23 -14.8391 2
23 -14.8391 2
23 -14.8391 2
23 -14.8391 2
20 -14.8391 1
20 -14.8391 1
20 -14.8391 1
20 -14.8391 1
-20 -14.8391 1
-20 -14.8391 1
-20 -14.8391 1
-20 -14.8391 1
23 -20.8391 2
23 -20.8391 2
23 -20.8391 2
-20 -17.8391 1
-20 -17.8391 1
-20 -17.8391 1
20 -17.8391 1
20 -17.8391 1
20 -17.8391 1
22 -13.8391 1
22 -13.8391 1
22 -13.8391 1
22 -13.8391 1
20 -13.8391 1
20 -13.8391 1
20 -13.8391 1
20 -13.8391 1
-22 -7.8391 1
-22 -7.8391 1
-22 -7.8391 1
-22 -7.8391 1
-22 -13.8391 1
-22 -13.8391 1
-22 -13.8391 1
-22 -13.8391 1
-23 -13.8391 1
-23 -13.8391 1
-23 -13.8391 1
-23 -7.8391 1
-23 -7.8391 1
-23 -7.8391 1
22 -7.8391 1
22 -7.8391 1
22 -7.8391 1
22 -7.8391 1
23 -7.8391 1
23 -7.8391 1
23 -7.8391 1
23 -13.8391 1
23 -13.8391 1
23 -13.8391 1
20 -7.8391 1
20 -7.8391 1
20 -7.8391 1
20 -7.8391 1
-20 -13.8391 1
-20 -13.8391 1
-20 -13.8391 1
-20 -13.8391 1
-20 -7.8391 1
-20 -7.8391 1
-20 -7.8391 1
-20 -7.8391 1
-23 -13.8391 2
-23 -13.8391 2
-23 -13.8391 2
-23 -7.8391 2
-23 -7.8391 2
-23 -7.8391 2
23 -7.8391 2
23 -7.8391 2
23 -7.8391 2
23 -13.8391 2
23 -13.8391 2
23 -13.8391 2
-20 -6.8391 1
-20 -6.8391 1
-20 -6.8391 1
-20 -6.8391 1
-22 -6.8391 1
-22 -6.8391 1
-22 -6.8391 1
-22 -6.8391 1
22 -6.8391 1
22 -6.8391 1
22 -6.8391 1
22 -6.8391 1
20 -6.8391 1
20 -6.8391 1
20 -6.8391 1
20 -6.8391 1
-22 -0.8391 1
-22 -0.8391 1
-22 -0.8391 1
-22 -0.8391 1
-23 -6.8391 1
-23 -6.8391 1
-23 -6.8391 1
-23 -0.8391 1
-23 -0.8391 1
-23 -0.8391 1
22 -0.8391 1
22 -0.8391 1
22 -0.8391 1
22 -0.8391 1
23 -0.8391 1
23 -0.8391 1
23 -0.8391 1
23 -6.8391 1
23 -6.8391 1
23 -6.8391 1
20 -0.8391 1
20 -0.8391 1
20 -0.8391 1
20 -0.8391 1
-20 -0.8391 1
-20 -0.8391 1
-20 -0.8391 1
-20 -0.8391 1
-23 -6.8391 2
-23 -6.8391 2
-23 -6.8391 2
-23 -0.8391 2
-23 -0.8391 2
-23 -0.8391 2
23 -0.8391 2
23 -0.8391 2
23 -0.8391 2
23 -6.8391 2
23 -6.8391 2
23 -6.8391 2
19 -11.91955 -15
19 -11.91955 -15
19 -11.91955 -15
23 -11.91955 -15
23 -11.91955 -15
23 -11.91955 -15
23 -7.91955 -15
23 -7.91955 -15
23 -7.91955 -15
19 -7.91955 -15
19 -7.91955 -15
19 -7.91955 -15
20 -10.91955 -15
20 -10.91955 -15
20 -10.91955 -15
20 -8.91955 -15
20 -8.91955 -15
20 -8.91955 -15
22 -8.91955 -15
22 -8.91955 -15
22 -8.91955 -15
22 -10.91955 -15
22 -10.91955 -15
22 -10.91955 -15
19 -7.91955 -16
19 -7.91955 -16
19 -7.91955 -16
19 -11.91955 -16
19 -11.91955 -16
19 -11.91955 -16
23 -7.91955 -16
23 -7.91955 -16
23 -7.91955 -16
23 -11.91955 -16
23 -11.91955 -16
23 -11.91955 -16
20 -8.91955 0
20 -8.91955 0
20 -8.91955 0
22 -8.91955 0
22 -8.91955 0
22 -8.91955 0
20 0 0
20 0 0
20 0 0
22 0 0
22 0 0
22 0 0
20 2.163817 18.03038
20 2.163817 18.03038
20 2.163817 18.03038
20 1.642872 15.07596
20 1.642872 15.07596
20 1.642872 15.07596
20 1.642872 15.07596
-20 1.642872 15.07596
-20 1.642872 15.07596
-20 1.642872 15.07596
-20 1.642872 15.07596
-20 2.163817 18.03038
-20 2.163817 18.03038
-20 2.163817 18.03038
22 1.642872 15.07596
22 1.642872 15.07596
22 1.642872 15.07596
22 1.642872 15.07596
22 2.511113 20
22 2.511113 20
22 2.511113 20
-22 2.511113 20
-22 2.511113 20
-22 2.511113 20
-22 1.642872 15.07596
-22 1.642872 15.07596
-22 1.642872 15.07596
-22 1.642872 15.07596
-23 1.642872 15.07596
-23 1.642872 15.07596
-23 1.642872 15.07596
-23 2.684761 20.98481
-23 2.684761 20.98481
-23 2.684761 20.98481
23 2.684761 20.98481
23 2.684761 20.98481
23 2.684761 20.98481
23 1.642872 15.07596
23 1.642872 15.07596
23 1.642872 15.07596
-23 0.658064 15.24961
-23 0.658064 15.24961
-23 0.658064 15.24961
-23 1.699953 21.15846
-23 1.699953 21.15846
-23 1.699953 21.15846
23 1.699953 21.15846
23 1.699953 21.15846
23 1.699953 21.15846
23 0.658064 15.24961
23 0.658064 15.24961
23 0.658064 15.24961
-22 1.469224 14.09115
-22 1.469224 14.09115
-22 1.469224 14.09115
-22 1.469224 14.09115
-20 1.469224 14.09115
-20 1.469224 14.09115
-20 1.469224 14.09115
-20 1.469224 14.09115
20 1.469224 14.09115
20 1.469224 14.09115
20 1.469224 14.09115
20 1.469224 14.09115
22 1.469224 14.09115
22 1.469224 14.09115
22 1.469224 14.09115
22 1.469224 14.09115
-22 0.427335 8.182307
-22 0.427335 8.182307
-22 0.427335 8.182307
-22 0.427335 8.182307
-23 0.427335 8.182307
-23 0.427335 8.182307
-23 0.427335 8.182307
-23 1.469224 14.09115
-23 1.469224 14.09115
-23 1.469224 14.09115
22 0.427335 8.182307
22 0.427335 8.182307
22 0.427335 8.182307
22 0.427335 8.182307
23 1.469224 14.09115
23 1.469224 14.09115
23 1.469224 14.09115
23 0.427335 8.182307
23 0.427335 8.182307
23 0.427335 8.182307
20 0.427335 8.182307
20 0.427335 8.182307
20 0.427335 8.182307
20 0.427335 8.182307
-20 0.427335 8.182307
-20 0.427335 8.182307
-20 0.427335 8.182307
-20 0.427335 8.182307
-23 -0.557473 8.355955
-23 -0.557473 8.355955
-23 -0.557473 8.355955
-23 0.484416 14.2648
-23 0.484416 14.2648
-23 0.484416 14.2648
23 0.484416 14.2648
23 0.484416 14.2648
23 0.484416 14.2648
23 -0.557473 8.355955
23 -0.557473 8.355955
23 -0.557473 8.355955
-20 3.148624 17.85674
-20 3.148624 17.85674
-20 3.148624 17.85674
20 3.148624 17.85674
20 3.148624 17.85674
20 3.148624 17.85674
22 3.495921 19.82635
22 3.495921 19.82635
22 3.495921 19.82635
-22 3.495921 19.82635
-22 3.495921 19.82635
-22 3.495921 19.82635
3 3 18 0
3 0 18 21
3 0 21 9
3 9 21 6
3 6 21 12
3 6 12 15
3 18 3 15
3 15 3 6
3 24 27 4
3 4 27 7
3 28 30 8
3 8 30 10
3 31 33 11
3 11 33 1
3 34 25 2
3 2 25 5
3 13 22 39
3 39 22 36
3 19 16 45
3 45 16 42
3 35 32 26
3 26 32 29
3 43 48 46
3 46 48 63
3 63 48 51
3 63 51 60
3 60 51 57
3 57 51 54
3 37 66 40
3 40 66 69
3 72 76 95
3 95 76 92
3 92 76 79
3 92 79 89
3 89 79 86
3 86 79 82
3 96 93 101
3 101 93 98
3 97 102 73
3 73 102 111
3 111 102 104
3 111 104 107
3 107 104 83
3 83 104 87
3 90 88 115
3 115 88 105
3 94 91 99
3 99 91 116
3 117 106 100
3 100 106 103
3 112 108 118
3 118 108 121
3 84 124 109
3 109 124 128
3 136 140 132
3 132 140 143
3 146 150 125
3 125 150 153
3 129 160 156
3 156 160 164
3 144 141 171
3 171 141 168
3 145 172 133
3 133 172 165
3 165 172 174
3 165 174 157
3 157 174 147
3 147 174 151
3 154 152 177
3 177 152 175
3 155 178 126
3 126 178 130
3 130 178 169
3 130 169 161
3 161 169 137
3 137 169 142
3 179 176 170
3 170 176 173
3 166 180 134
3 134 180 184
3 113 162 74
3 74 162 138
3 148 188 158
3 158 188 192
3 185 200 196
3 196 200 203
3 206 210 189
3 189 210 213
3 193 181 216
3 216 181 220
3 204 201 227
3 227 201 224
3 205 228 197
3 197 228 221
3 221 228 230
3 221 230 217
3 217 230 207
3 207 230 211
3 214 212 233
3 233 212 231
3 215 234 190
3 190 234 194
3 194 234 225
3 194 225 182
3 182 225 186
3 186 225 202
3 235 232 226
3 226 232 229
3 239 257 236
3 236 257 248
3 236 248 251
3 239 242 257
3 257 242 254
3 254 242 245
3 254 245 251
3 251 245 236
3 260 263 246
3 246 263 237
3 266 261 243
3 243 261 247
3 269 267 240
3 240 267 244
3 264 270 238
3 238 270 241
3 255 252 275
3 275 252 272
3 249 258 55
3 55 258 58
3 265 262 271
3 271 262 268
3 273 278 276
3 276 278 281
3 287 291 284
3 284 291 295
3 298 302 321
3 321 302 318
3 318 302 305
3 318 305 315
3 315 305 312
3 312 305 308
3 316 313 327
3 327 313 324
3 319 317 330
3 330 317 328
3 322 320 333
3 333 320 331
3 323 334 299
3 299 334 288
3 288 334 292
3 292 334 325
3 292 325 309
3 309 325 314
3 326 335 329
3 329 335 332
3 310 336 293
3 293 336 340
3 289 344 300
3 300 344 348
3 352 356 337
3 337 356 359
3 349 366 362
3 362 366 369
3 372 376 345
3 345 376 341
3 360 357 383
3 383 357 380
3 361 384 338
3 338 384 342
3 342 384 386
3 342 386 346
3 346 386 350
3 350 386 367
3 370 368 389
3 389 368 387
3 371 390 363
3 363 390 373
3 373 390 377
3 377 390 381
3 377 381 353
3 353 381 358
3 382 391 385
3 385 391 388
3 354 198 378
3 378 198 222
3 374 218 364
3 364 218 208
3 49 119 52
3 52 119 122
3 296 392 285
3 285 392 395
3 61 80 64
3 64 80 77
3 123 110 53
3 53 110 56
3 56 110 131
3 56 131 159
3 56 159 274
3 274 159 195
3 274 195 279
3 279 195 219
3 279 219 375
3 279 375 396
3 396 375 347
3 396 347 290
3 290 286 396
3 253 250 274
3 274 250 56
3 303 301 398
3 398 301 351
3 398 351 365
3 398 365 282
3 282 365 209
3 282 209 191
3 282 191 277
3 277 191 149
3 277 149 59
3 59 149 127
3 59 127 85
3 81 62 85
3 85 62 59
3 259 256 59
3 59 256 277
3 120 50 114
3 114 50 44
3 114 44 163
3 163 44 167
3 167 44 41
3 167 41 183
3 183 41 70
3 183 70 223
3 223 70 379
3 379 70 393
3 379 393 343
3 343 393 294
3 294 393 297
3 17 14 44
3 44 14 41
3 71 67 394
3 394 67 401
3 394 401 399
3 394 399 397
3 397 399 283
3 397 283 280
3 402 306 400
3 400 306 304
3 307 403 311
3 311 403 339
3 339 403 355
3 355 403 68
3 355 68 199
3 199 68 187
3 187 68 38
3 187 38 135
3 135 38 47
3 135 47 139
3 139 47 75
3 75 47 65
3 75 65 78
3 23 20 38
3 38 20 47
